<?xml version="1.0" encoding="UTF-8" standalone="no"?>
<!-- Created with Inkscape (http://www.inkscape.org/) -->

<svg
   xmlns:dc="http://purl.org/dc/elements/1.1/"
   xmlns:cc="http://creativecommons.org/ns#"
   xmlns:rdf="http://www.w3.org/1999/02/22-rdf-syntax-ns#"
   xmlns:svg="http://www.w3.org/2000/svg"
   xmlns="http://www.w3.org/2000/svg"
   xmlns:sodipodi="http://sodipodi.sourceforge.net/DTD/sodipodi-0.dtd"
   xmlns:inkscape="http://www.inkscape.org/namespaces/inkscape"
   width="1052.3622"
   height="744.09448"
   id="svg2"
   version="1.1"
   inkscape:version="0.48+devel r9772"
   sodipodi:docname="paint.svg">
  <defs
     id="defs4" />
  <sodipodi:namedview
     id="base"
     pagecolor="#ffffff"
     bordercolor="#666666"
     borderopacity="1.0"
     inkscape:pageopacity="0.0"
     inkscape:pageshadow="2"
     inkscape:zoom="0.93536509"
     inkscape:cx="526.18109"
     inkscape:cy="372.04724"
     inkscape:document-units="px"
     inkscape:current-layer="layer1"
     showgrid="false"
     inkscape:window-width="1440"
     inkscape:window-height="851"
     inkscape:window-x="0"
     inkscape:window-y="1"
     inkscape:window-maximized="1" />
  <metadata
     id="metadata7">
    <rdf:RDF>
      <cc:Work
         rdf:about="">
        <dc:format>image/svg+xml</dc:format>
        <dc:type
           rdf:resource="http://purl.org/dc/dcmitype/StillImage" />
        <dc:title></dc:title>
      </cc:Work>
    </rdf:RDF>
  </metadata>
  <g
     inkscape:label="Layer 1"
     inkscape:groupmode="layer"
     id="layer1"
     transform="translate(0,-308.2677)">
    <rect
       y="302.73019"
       x="-4.7980051"
       height="758.02936"
       width="187.39877"
       id="rect3122"
       style="color:#000000;fill:#ffcc00;stroke:none;stroke-width:0.50024593px;marker:none;visibility:visible;display:inline;overflow:visible;enable-background:accumulate" />
    <rect
       style="color:#000000;fill:#ffcc00;stroke:none;stroke-width:0.50024593px;marker:none;visibility:visible;display:inline;overflow:visible;enable-background:accumulate"
       id="rect3120"
       width="142.49652"
       height="296.17761"
       x="182.10425"
       y="302.73019" />
    <rect
       style="color:#000000;fill:#333333;stroke:none;stroke-width:4.68694973000000026px;stroke-linecap:butt;stroke-linejoin:miter;stroke-miterlimit:4;stroke-opacity:1;stroke-dasharray:none;stroke-dashoffset:0;marker:none;visibility:visible;display:inline;overflow:visible;enable-background:accumulate"
       id="rect3110"
       width="153.74876"
       height="59.690701"
       x="176.47815"
       y="578.22211" />
    <rect
       y="583.90381"
       x="182.10425"
       height="15.003987"
       width="142.49652"
       id="rect3112"
       style="color:#000000;fill:#ffcc00;stroke:none;stroke-width:0.50024593px;marker:none;visibility:visible;display:inline;overflow:visible;enable-background:accumulate" />
    <path
       style="font-size:48.19402695000000136px;font-style:normal;font-variant:normal;font-weight:100;font-stretch:normal;text-align:start;line-height:125%;letter-spacing:0px;word-spacing:0px;writing-mode:lr-tb;text-anchor:start;fill:#333333;fill-opacity:1;stroke:none;font-family:Ro;-inkscape-font-specification:Ro Thin"
       d="m 163.20114,598.98329 -0.31965,14.63229 c 26.00015,-0.66349 120.54126,0.13409 147.76129,0.13409 14.51482,1.4e-4 25.18157,2.0272 32.0763,6.15161 6.89445,4.12466 10.39908,10.18447 10.39917,18.3084 -9e-5,16.37315 -14.17146,24.60659 -42.47547,24.60649 -26.94795,0.63119 -48.14407,0.59825 -76.45587,0.59825 l 0,69.12012 25.77822,0 0,-54.77872 59.31921,0 c 19.23218,5e-5 33.92601,-3.37844 44.08661,-10.2527 10.34176,-6.99912 15.52534,-16.79484 15.52553,-29.29344 -1.9e-4,-12.4984 -5.18377,-22.12615 -15.52553,-29.0005 -10.1606,-6.99906 -24.85443,-10.54549 -44.08661,-10.54564 z"
       id="path3085"
       inkscape:connector-curvature="0"
       sodipodi:nodetypes="ccccccccccscccsc" />
    <path
       inkscape:connector-curvature="0"
       id="path3087"
       style="font-size:48.19402695000000136px;font-style:normal;font-variant:normal;font-weight:100;font-stretch:normal;text-align:start;line-height:125%;letter-spacing:0px;word-spacing:0px;writing-mode:lr-tb;text-anchor:start;fill:#333333;fill-opacity:1;stroke:none;font-family:Ro;-inkscape-font-specification:Ro Thin"
       d="m 363.49918,732.53914 75.9314,-133.85928 28.57628,0 75.93131,133.85928 -28.57633,0 -21.22809,-40.30778 -82.19091,0 -21.77239,40.30778 -26.67127,0 m 56.60832,-55.306 65.86159,0 -32.38645,-62.43018 -33.47514,62.43018" />
    <path
       inkscape:connector-curvature="0"
       id="path3089"
       style="font-size:48.19402695000000136px;font-style:normal;font-variant:normal;font-weight:100;font-stretch:normal;text-align:start;line-height:125%;letter-spacing:0px;word-spacing:0px;writing-mode:lr-tb;text-anchor:start;fill:#333333;fill-opacity:1;stroke:none;font-family:Ro;-inkscape-font-specification:Ro Thin"
       d="m 562.19677,732.53914 0,-133.85928 25.85471,0 0,133.85928 -25.85471,0" />
    <path
       inkscape:connector-curvature="0"
       id="path3091"
       style="font-size:48.19402695000000136px;font-style:normal;font-variant:normal;font-weight:100;font-stretch:normal;text-align:start;line-height:125%;letter-spacing:0px;word-spacing:0px;writing-mode:lr-tb;text-anchor:start;fill:#333333;fill-opacity:1;stroke:none;font-family:Ro;-inkscape-font-specification:Ro Thin"
       d="m 631.53255,732.53914 0,-133.85928 27.48769,0 102.33036,108.54974 0.54439,-108.54974 24.49395,0 0,133.85928 -28.30417,0 -101.51388,-107.42489 -0.54439,107.42489 -24.49395,0" />
    <path
       inkscape:connector-curvature="0"
       id="path3093"
       style="font-size:48.19402695000000136px;font-style:normal;font-variant:normal;font-weight:100;font-stretch:normal;text-align:start;line-height:125%;letter-spacing:0px;word-spacing:0px;writing-mode:lr-tb;text-anchor:start;fill:#333333;fill-opacity:1;stroke:none;font-family:Ro;-inkscape-font-specification:Ro Thin"
       d="m 872.56853,732.53914 0,-118.86104 -64.77293,0 0,-14.99824 155.40063,0 0,14.99824 -64.77293,0 0,118.86104 -25.85477,0" />
    <path
       style="color:#000000;fill:#333333;stroke:none;stroke-width:4.29687262000000025px;stroke-linecap:butt;stroke-linejoin:miter;stroke-miterlimit:4;stroke-opacity:1;stroke-dasharray:none;stroke-dashoffset:0;marker:none;visibility:visible;display:inline;overflow:visible;enable-background:accumulate"
       d="m 217.26684,699.59743 0,63.93107 c 0,24.94433 12.53609,45.10786 28.17606,45.10786 15.63993,0 28.28237,-20.16353 28.28237,-45.10786 l 0,-63.93107 -56.45843,0 z"
       id="rect3105"
       inkscape:connector-curvature="0" />
  </g>
</svg>
